<svg xmlns="http://www.w3.org/2000/svg" xmlns:xlink="http://www.w3.org/1999/xlink" style="isolation:isolate"
    viewBox="505 -97.75 11.5 11.5">
    <path
        d=" M 510.75 -90.58 L 514.79 -86.54 C 514.98 -86.36 515.23 -86.25 515.5 -86.25 C 515.77 -86.25 516.02 -86.36 516.21 -86.54 C 516.39 -86.73 516.5 -86.98 516.5 -87.25 C 516.5 -87.52 516.39 -87.77 516.21 -87.96 L 512.17 -92 L 516.21 -96.04 C 516.39 -96.23 516.5 -96.48 516.5 -96.75 C 516.5 -97.02 516.39 -97.27 516.21 -97.46 C 516.02 -97.64 515.77 -97.75 515.5 -97.75 C 515.23 -97.75 514.98 -97.64 514.79 -97.46 L 510.75 -93.42 L 506.71 -97.46 C 506.52 -97.64 506.27 -97.75 506 -97.75 C 505.73 -97.75 505.48 -97.64 505.29 -97.46 C 505.11 -97.27 505 -97.02 505 -96.75 C 505 -96.48 505.11 -96.23 505.29 -96.04 L 509.33 -92 L 505.29 -87.96 C 505.11 -87.77 505 -87.52 505 -87.25 C 505 -86.98 505.11 -86.73 505.29 -86.54 C 505.48 -86.36 505.73 -86.25 506 -86.25 C 506.27 -86.25 506.52 -86.36 506.71 -86.54 L 510.75 -90.58 Z " />
</svg>